# Blender v2.72 (sub 0) OBJ File: ''
# www.blender.org
mtllib cabinas.mtl
o cabinas
v -2.492505 -0.077262 7.625655
v 2.179770 -0.077262 7.625655
v 2.179770 0.077260 7.625655
v -2.492505 0.077260 7.625655
v -2.492505 0.077262 -4.514902
v 2.179770 0.077262 -4.514902
v 2.179770 0.077262 -7.464149
v -2.492505 0.077262 -7.464149
v -2.492505 0.077265 -7.625657
v 2.179770 0.077265 -7.625657
v 2.179770 -0.077260 -7.625654
v -2.492505 -0.077260 -7.625654
v -2.492505 -0.077260 -7.464149
v 2.179770 -0.077260 -7.464149
v 2.179770 -0.077260 -4.514902
v -2.492505 -0.077260 -4.514902
v 2.492505 -0.077260 -4.514902
v 2.492505 -0.077260 -7.464149
v 2.492505 0.077262 -7.464149
v 2.492505 0.077262 -4.514902
v 2.179770 -0.077260 -4.394893
v -2.492505 -0.077260 -4.394893
v 2.492505 0.077262 -4.394893
v 2.492505 -0.077260 -4.394893
v 2.179770 6.074300 -4.514901
v -2.492505 6.074300 -4.514901
v -2.492505 6.074300 -4.394892
v 2.179770 6.074300 -4.394892
v -2.492505 0.077262 -4.394893
v -2.492505 -0.077261 -1.556637
v 2.179770 -0.077261 -1.556637
v 2.179770 -0.077261 -1.442917
v -2.492505 -0.077261 -1.442917
v 2.492505 -0.077261 -1.556637
v 2.492505 0.077261 -1.556637
v 2.492505 0.077261 -1.442917
v 2.492505 -0.077261 -1.442917
v 2.179770 6.074299 -1.556636
v -2.492505 6.074299 -1.556636
v -2.492505 6.074299 -1.442916
v 2.179770 6.074299 -1.442916
v -2.492505 0.077261 -1.556637
v -2.492505 0.077261 -1.442917
v -2.492505 -0.077261 1.500003
v 2.179770 -0.077261 1.500003
v 2.179770 -0.077261 1.605591
v -2.492505 -0.077261 1.605591
v 2.492505 -0.077261 1.500003
v 2.492505 0.077261 1.500003
v 2.492505 0.077261 1.605591
v 2.492505 -0.077261 1.605591
v 2.179770 6.074298 1.500002
v -2.492505 6.074298 1.500002
v -2.492505 6.074298 1.605590
v 2.179770 6.074298 1.605590
v -2.492505 0.077261 1.500003
v -2.492505 0.077261 1.605591
v -2.492505 -0.077262 4.483825
v 2.179770 -0.077262 4.483825
v 2.179770 -0.077262 4.629833
v -2.492505 -0.077262 4.629833
v 2.492505 -0.077262 4.483825
v 2.492505 0.077260 4.483825
v 2.492505 0.077260 4.629833
v 2.492505 -0.077262 4.629833
v 2.179770 6.074298 4.483826
v -2.492505 6.074298 4.483826
v -2.492505 6.074298 4.629834
v 2.179770 6.074298 4.629834
v -2.492505 0.077260 4.483825
v -2.492505 0.077260 4.629833
v 2.179770 0.077262 -4.394893
v 2.179770 0.077261 -1.556637
v 2.179770 0.077261 -1.442917
v 2.179770 0.077261 1.500003
v 2.179770 0.077261 1.605591
v 2.179770 0.077260 4.483825
v 2.492505 0.077260 7.467702
v 2.492505 -0.077262 7.467702
v 2.179770 -0.077262 7.467702
v -2.492505 -0.077262 7.467702
v -2.492505 0.077260 7.467702
v 2.179770 0.077260 4.629833
v 2.179770 0.077260 7.467702
v -2.492505 0.077262 -4.514902
v 2.179770 0.077262 -4.514902
v -2.492505 0.077262 -4.394893
v 2.179770 0.077262 -4.394893
v 2.492505 0.077262 -4.514902
v 2.492505 0.077262 -4.394893
v -2.492505 0.077261 -1.556637
v 2.179770 0.077261 -1.556637
v -2.492505 0.077261 -1.442917
v 2.179770 0.077261 -1.442917
v 2.492505 0.077261 -1.556637
v 2.492505 0.077261 -1.442917
v -2.492505 0.077261 1.500003
v 2.179770 0.077261 1.500003
v -2.492505 0.077261 1.605591
v 2.179770 0.077261 1.605591
v 2.492505 0.077261 1.500003
v 2.492505 0.077261 1.605591
v -2.492505 0.077260 4.483825
v 2.179770 0.077260 4.483825
v -2.492505 0.077260 4.629833
v 2.179770 0.077260 4.629833
v 2.492505 0.077260 4.483825
v 2.492505 0.077260 4.629833
v 2.265350 2.079997 4.629832
v 2.179770 2.079997 4.629834
v 2.179770 2.079997 7.467702
v 2.265350 2.079997 7.467702
v 2.265350 0.077260 4.629832
v 2.265350 0.077260 4.629832
v 2.265350 2.079997 4.483826
v 2.179770 2.079997 4.483826
v 2.179770 2.079997 4.629834
v 2.265350 2.079997 4.629832
v 2.265350 0.077260 4.483825
v 2.265350 0.077260 4.483825
v 2.265350 2.079997 1.605591
v 2.179770 2.079997 1.605591
v 2.179770 2.079996 4.483826
v 2.265350 2.079996 4.483826
v 2.265350 0.077261 1.605591
v 2.265350 0.077261 1.605591
v 2.265350 2.079997 1.500003
v 2.179770 2.079997 1.500003
v 2.179770 2.079997 1.605591
v 2.265350 2.079997 1.605591
v 2.265350 0.077261 1.500003
v 2.265350 0.077261 1.500003
v 2.265350 2.079997 -1.442917
v 2.179770 2.079997 -1.442917
v 2.179770 2.079997 1.500003
v 2.265350 2.079997 1.500003
v 2.265350 0.077261 -1.442917
v 2.265350 0.077261 -1.442917
v 2.265350 2.079997 -1.556637
v 2.179770 2.079997 -1.556637
v 2.179770 2.079997 -1.442917
v 2.265350 2.079997 -1.442917
v 2.265350 0.077261 -1.556637
v 2.265350 0.077261 -1.556637
v 2.265350 2.079998 -4.394893
v 2.179770 2.079998 -4.394893
v 2.179770 2.079997 -1.556637
v 2.265350 2.079997 -1.556637
v 2.265350 0.077262 -4.394893
v 2.265350 0.077262 -4.394893
v 2.265350 2.079998 -4.514902
v 2.179770 2.079998 -4.514902
v 2.179770 2.079998 -4.394893
v 2.265350 2.079998 -4.394893
v 2.265350 0.077262 -4.514902
v 2.265350 0.077262 -4.514902
v 2.179770 2.079998 -7.464149
v 2.179770 2.079998 -4.514902
v 2.265350 2.079998 -4.514902
v 2.265350 2.079998 -7.464149
v 2.265350 0.077262 -7.464149
v 2.265350 -0.077260 -7.464149
v 2.265350 -0.077260 -4.514902
v 2.265350 -0.077260 -4.394893
v 2.265350 -0.077261 -1.556637
v 2.265350 -0.077261 -1.442917
v 2.265350 -0.077261 1.500003
v 2.265350 -0.077261 1.605591
v 2.265350 -0.077262 4.483825
v 2.265350 -0.077262 4.629833
v 2.265350 -0.077262 7.467702
v 2.265350 0.077260 7.467702
v 2.179770 1.933975 4.629834
v 2.265350 1.933851 4.629832
v 2.179770 1.933851 7.467702
v 2.265350 1.933851 7.467702
v 2.179770 1.927941 1.605591
v 2.265350 1.927941 1.605591
v 2.179770 1.927940 4.483826
v 2.265350 1.927940 4.483826
v 2.179770 1.920154 -1.442917
v 2.265350 1.920154 -1.442917
v 2.179770 1.920154 1.500003
v 2.265350 1.920154 1.500003
v 2.179770 1.918201 -4.394893
v 2.265350 1.918201 -4.394893
v 2.179770 1.918200 -1.556637
v 2.265350 1.918200 -1.556637
v 2.179770 1.918483 -4.514902
v 2.179770 1.918483 -7.464149
v 2.265350 1.918483 -4.514902
v 2.265350 1.918483 -7.464149
v 1.209778 1.918483 -7.464149
v 1.209778 1.918483 -4.514902
v 1.209778 2.079998 -4.514902
v 1.209778 2.079998 -7.464149
v 1.209778 1.918201 -4.394893
v 1.209778 1.918200 -1.556637
v 1.209778 2.079997 -1.556637
v 1.209778 2.079998 -4.394893
v 1.209778 1.920154 -1.442917
v 1.209778 1.920154 1.500003
v 1.209778 2.079997 1.500003
v 1.209778 2.079997 -1.442917
v 1.209778 1.927941 1.605591
v 1.209778 1.927940 4.483826
v 1.209778 2.079996 4.483826
v 1.209778 2.079997 1.605591
v 1.209778 1.933975 4.629834
v 1.209778 1.933851 7.467702
v 1.209778 2.079997 7.467702
v 1.209778 2.079997 4.629834
v -2.492505 6.055846 -7.464148
v 2.179770 6.055846 -7.464148
v 2.179770 6.055850 -7.625656
v -2.492505 6.055850 -7.625656
v 2.179770 6.138622 7.467703
v -2.492505 6.138623 7.467703
v -2.492505 6.138623 7.625656
v 2.179770 6.138622 7.625656
vt 0.135263 0.630739
vt 0.135263 0.765396
vt 0.000605 0.765396
vt 0.000605 0.630739
vt 0.770257 0.216324
vt 0.769660 0.243175
vt 0.494905 0.250995
vt 0.758517 0.243014
vt 0.701211 0.218925
vt 0.715945 0.186872
vt 0.722187 0.186872
vt 0.717653 0.186872
vt 0.826070 0.209619
vt 0.676096 0.252792
vt 0.786499 0.294446
vt 0.722187 0.286363
vt 0.518410 0.719437
vt 0.518410 0.575082
vt 0.697557 0.575082
vt 0.697569 0.719437
vt 0.494905 0.499998
vt 0.682966 0.393743
vt 0.077667 0.013855
vt 0.451105 0.013855
vt 0.451105 0.387294
vt 0.077667 0.387294
vt 0.088657 -0.002153
vt 0.479385 -0.002153
vt 0.479385 0.388576
vt 0.088657 0.388576
vt 0.622696 0.286363
vt 0.715945 0.286363
vt 0.622696 0.087381
vt 0.494905 0.001992
vt 0.758517 0.303851
vt 0.494905 0.749000
vt 0.758517 0.364688
vt 0.494905 0.998003
vt 0.261523 0.998003
vt 0.722187 0.087381
vt 0.821678 0.087381
vt 0.821678 0.186872
vt 0.697680 0.182177
vt 0.758517 0.182177
vt 0.697680 0.243014
vt 0.806527 0.262613
vt 0.771524 0.381441
vt 0.685434 0.321270
vt 0.821641 0.282060
vt 0.834833 0.320723
vt 0.785706 0.294446
vt 0.717653 0.385855
vt 0.717653 0.485346
vt 0.717653 0.087381
vt 0.722187 0.385855
vt 0.722187 0.485346
vt 0.699599 0.568357
vt 0.699599 0.732799
vt 0.511961 0.732799
vt 0.511961 0.568357
vt 0.967285 0.274001
vt 0.967285 0.289895
vt 0.886816 0.289895
vt 0.886816 0.274001
vt 0.967285 0.280148
vt 0.967285 0.295443
vt 0.886816 0.295443
vt 0.886816 0.280148
vt 0.967285 0.263675
vt 0.967285 0.279535
vt 0.886816 0.279535
vt 0.886816 0.263675
vt 0.967285 0.247595
vt 0.967285 0.263106
vt 0.886816 0.263106
vt 0.886816 0.247595
vt 0.967285 0.231515
vt 0.967285 0.246808
vt 0.886816 0.246808
vt 0.886816 0.231515
vt 0.047692 0.012522
vt 0.385440 0.012522
vt 0.385440 0.350270
vt 0.047692 0.350270
vn 0.000000 1.000000 0.000000
vn 0.000000 0.000000 1.000000
vn -1.000000 0.000000 0.000000
vn 0.000000 0.000000 -1.000000
vn 1.000000 0.000000 0.000000
vn 0.000000 -1.000000 -0.000000
usemtl lambert7SG
s off
f 5/1/1 6/2/1 7/3/1 8/4/1
f 25/5/1 26/6/1 27/6/1 28/5/1
f 38/5/1 39/6/1 40/6/1 41/5/1
f 52/5/1 53/6/1 54/6/1 55/5/1
f 66/5/1 67/6/1 68/6/1 69/5/1
f 72/3/1 29/4/1 42/1/1 73/2/1
f 74/3/1 43/4/1 56/1/1 75/2/1
f 76/3/1 57/4/1 70/1/1 77/2/1
f 83/3/1 71/4/1 82/1/1 84/2/1
f 6/7/2 5/8/2 85/9/2 86/10/2
f 5/8/2 29/8/2 87/9/2 85/9/2
f 29/8/2 72/7/2 88/10/2 87/9/2
f 23/11/2 20/11/2 89/11/2 90/11/2
f 73/7/2 42/8/2 91/9/2 92/10/2
f 42/8/2 43/8/2 93/9/2 91/9/2
f 43/8/2 74/7/2 94/10/2 93/9/2
f 36/11/2 35/11/2 95/11/2 96/11/2
f 75/7/2 56/8/2 97/9/2 98/10/2
f 56/8/2 57/8/2 99/9/2 97/9/2
f 57/8/2 76/7/2 100/10/2 99/9/2
f 50/11/2 49/11/2 101/11/2 102/11/2
f 77/7/2 70/8/2 103/9/2 104/10/2
f 70/8/2 71/8/2 105/9/2 103/9/2
f 71/8/2 83/7/2 106/10/2 105/9/2
f 64/11/2 63/11/2 107/11/2 108/11/2
f 106/10/2 83/7/2 113/12/2 114/12/2
f 115/13/1 116/14/1 117/14/1 118/13/1
f 119/12/2 77/7/2 104/10/2 120/12/2
f 100/10/2 76/7/2 125/12/2 126/12/2
f 127/13/1 128/14/1 129/14/1 130/13/1
f 131/12/2 75/7/2 98/10/2 132/12/2
f 94/10/2 74/7/2 137/12/2 138/12/2
f 139/13/1 140/14/1 141/14/1 142/13/1
f 143/12/2 73/7/2 92/10/2 144/12/2
f 88/10/2 72/7/2 149/12/2 150/12/2
f 151/13/1 152/14/1 153/14/1 154/13/1
f 155/12/2 6/7/2 86/10/2 156/12/2
f 64/11/1 113/12/1 172/12/1 78/11/1
f 114/12/2 113/12/2 64/11/2 108/11/2
f 107/11/1 120/12/1 114/12/1 108/11/1
f 63/11/2 119/12/2 120/12/2 107/11/2
f 50/11/1 125/12/1 119/12/1 63/11/1
f 126/12/2 125/12/2 50/11/2 102/11/2
f 101/11/1 132/12/1 126/12/1 102/11/1
f 49/11/2 131/12/2 132/12/2 101/11/2
f 36/11/1 137/12/1 131/12/1 49/11/1
f 138/12/2 137/12/2 36/11/2 96/11/2
f 95/11/1 144/12/1 138/12/1 96/11/1
f 35/11/2 143/12/2 144/12/2 95/11/2
f 23/11/1 149/12/1 143/12/1 35/11/1
f 150/12/2 149/12/2 23/11/2 90/11/2
f 89/11/1 156/12/1 150/12/1 90/11/1
f 20/11/2 155/12/2 156/12/2 89/11/2
f 161/15/1 155/12/1 20/11/1 19/16/1
f 83/17/3 84/18/3 175/19/3 173/20/3
f 120/12/4 104/10/4 116/14/4 115/13/4
f 104/10/3 106/10/3 117/14/3 116/14/3
f 106/10/2 114/12/2 118/13/2 117/14/2
f 114/12/5 120/12/5 115/13/5 118/13/5
f 76/17/3 77/18/3 179/19/3 177/20/3
f 132/12/4 98/10/4 128/14/4 127/13/4
f 98/10/3 100/10/3 129/14/3 128/14/3
f 100/10/2 126/12/2 130/13/2 129/14/2
f 126/12/5 132/12/5 127/13/5 130/13/5
f 74/17/3 75/18/3 183/19/3 181/20/3
f 144/12/4 92/10/4 140/14/4 139/13/4
f 92/10/3 94/10/3 141/14/3 140/14/3
f 94/10/2 138/12/2 142/13/2 141/14/2
f 138/12/5 144/12/5 139/13/5 142/13/5
f 72/17/3 73/18/3 187/19/3 185/20/3
f 156/12/4 86/10/4 152/14/4 151/13/4
f 86/10/3 88/10/3 153/14/3 152/14/3
f 88/10/2 150/12/2 154/13/2 153/14/2
f 150/12/5 156/12/5 151/13/5 154/13/5
f 7/17/3 6/18/3 189/19/3 190/20/3
f 193/21/3 194/7/3 195/7/3 196/21/3
f 197/7/3 198/7/3 199/7/3 200/7/3
f 201/7/3 202/7/3 203/7/3 204/7/3
f 205/7/3 206/7/3 207/7/3 208/7/3
f 209/7/3 210/7/3 211/7/3 212/7/3
f 190/22/6 189/7/6 194/7/6 193/21/6
f 185/7/6 187/7/6 198/7/6 197/7/6
f 181/7/6 183/7/6 202/7/6 201/7/6
f 177/7/6 179/7/6 206/7/6 205/7/6
f 173/7/6 175/7/6 210/7/6 209/7/6
f 86/23/4 85/24/4 26/25/4 25/26/4
f 85/9/3 87/9/3 27/6/3 26/6/3
f 87/27/2 88/28/2 28/29/2 27/30/2
f 88/10/5 86/10/5 25/5/5 28/5/5
f 92/23/4 91/24/4 39/25/4 38/26/4
f 91/9/3 93/9/3 40/6/3 39/6/3
f 93/27/2 94/28/2 41/29/2 40/30/2
f 94/10/5 92/10/5 38/5/5 41/5/5
f 98/27/4 97/28/4 53/29/4 52/30/4
f 97/9/3 99/9/3 54/6/3 53/6/3
f 99/23/2 100/24/2 55/25/2 54/26/2
f 100/10/5 98/10/5 52/5/5 55/5/5
f 104/27/4 103/28/4 67/29/4 66/30/4
f 103/9/3 105/9/3 68/6/3 67/6/3
f 105/23/2 106/24/2 69/25/2 68/26/2
f 106/10/5 104/10/5 66/5/5 69/5/5
f 213/31/1 214/32/1 215/32/1 216/31/1
f 8/27/2 7/28/2 214/29/2 213/30/2
f 217/5/1 218/6/1 219/6/1 220/5/1
f 84/27/4 82/28/4 218/29/4 217/30/4
s 1
f 1/33/2 2/34/2 3/10/2 4/9/2
f 9/35/4 10/32/4 11/36/4 12/37/4
f 13/37/6 14/36/6 15/38/6 16/39/6
f 17/40/5 18/41/5 19/42/5 20/11/5
f 13/43/3 16/44/3 5/8/3 8/45/3
f 16/44/6 15/34/6 21/34/6 22/44/6
f 17/40/5 20/11/5 23/11/5 24/40/5
f 5/8/3 16/44/3 22/44/3 29/8/3
f 30/44/6 31/34/6 32/34/6 33/44/6
f 34/40/5 35/11/5 36/11/5 37/40/5
f 42/8/3 30/44/3 33/44/3 43/8/3
f 44/44/6 45/34/6 46/34/6 47/44/6
f 48/40/5 49/11/5 50/11/5 51/40/5
f 56/8/3 44/44/3 47/44/3 57/8/3
f 58/44/6 59/34/6 60/34/6 61/44/6
f 62/40/5 63/11/5 64/11/5 65/40/5
f 70/8/3 58/44/3 61/44/3 71/8/3
f 24/40/5 23/11/5 35/11/5 34/40/5
f 22/44/6 21/34/6 31/34/6 30/44/6
f 29/8/3 22/44/3 30/44/3 42/8/3
f 37/40/5 36/11/5 49/11/5 48/40/5
f 33/44/6 32/34/6 45/34/6 44/44/6
f 43/8/3 33/44/3 44/44/3 56/8/3
f 51/40/5 50/11/5 63/11/5 62/40/5
f 47/44/6 46/34/6 59/34/6 58/44/6
f 57/8/3 47/44/3 58/44/3 70/8/3
f 65/40/5 64/11/5 78/11/5 79/40/5
f 61/44/6 60/34/6 80/34/6 81/44/6
f 71/8/3 61/44/3 81/44/3 82/46/3
f 109/13/1 110/14/1 111/14/1 112/13/1
f 121/13/1 122/14/1 123/14/1 124/13/1
f 133/13/1 134/14/1 135/14/1 136/13/1
f 145/13/1 146/14/1 147/14/1 148/13/1
f 157/47/1 158/48/1 159/49/1 160/50/1
f 14/36/4 7/51/4 161/15/4 162/52/4
f 15/38/6 14/36/6 162/52/6 163/53/6
f 21/34/6 15/34/6 163/54/6 164/54/6
f 31/34/6 21/34/6 164/54/6 165/54/6
f 32/34/6 31/34/6 165/54/6 166/54/6
f 45/34/6 32/34/6 166/54/6 167/54/6
f 46/34/6 45/34/6 167/54/6 168/54/6
f 59/34/6 46/34/6 168/54/6 169/54/6
f 60/34/6 59/34/6 169/54/6 170/54/6
f 80/34/6 60/34/6 170/54/6 171/54/6
f 84/10/2 80/34/2 171/54/2 172/12/2
f 162/52/4 161/15/4 19/16/4 18/55/4
f 163/53/6 162/52/6 18/55/6 17/56/6
f 164/54/6 163/54/6 17/40/6 24/40/6
f 165/54/6 164/54/6 24/40/6 34/40/6
f 166/54/6 165/54/6 34/40/6 37/40/6
f 167/54/6 166/54/6 37/40/6 48/40/6
f 168/54/6 167/54/6 48/40/6 51/40/6
f 169/54/6 168/54/6 51/40/6 62/40/6
f 170/54/6 169/54/6 62/40/6 65/40/6
f 171/54/6 170/54/6 65/40/6 79/40/6
f 172/12/2 171/54/2 79/40/2 78/11/2
f 113/12/4 83/7/4 173/7/4 174/12/4
f 84/10/2 172/12/2 176/12/2 175/7/2
f 172/57/5 113/58/5 174/59/5 176/60/5
f 125/12/4 76/7/4 177/7/4 178/12/4
f 77/7/2 119/12/2 180/12/2 179/7/2
f 119/57/5 125/58/5 178/59/5 180/60/5
f 137/12/4 74/7/4 181/7/4 182/12/4
f 75/7/2 131/12/2 184/12/2 183/7/2
f 131/57/5 137/58/5 182/59/5 184/60/5
f 149/12/4 72/7/4 185/7/4 186/12/4
f 73/7/2 143/12/2 188/12/2 187/7/2
f 143/57/5 149/58/5 186/59/5 188/60/5
f 6/7/2 155/12/2 191/12/2 189/7/2
f 155/57/5 161/58/5 192/59/5 191/60/5
f 161/15/4 7/51/4 190/22/4 192/15/4
f 192/15/4 190/22/4 157/47/4 160/50/4
f 191/12/5 192/15/5 160/50/5 159/49/5
f 189/7/2 191/12/2 159/49/2 158/48/2
f 186/12/4 185/7/4 146/14/4 145/13/4
f 188/12/5 186/12/5 145/13/5 148/13/5
f 187/7/2 188/12/2 148/13/2 147/14/2
f 182/12/4 181/7/4 134/14/4 133/13/4
f 184/12/5 182/12/5 133/13/5 136/13/5
f 183/7/2 184/12/2 136/13/2 135/14/2
f 178/12/4 177/7/4 122/14/4 121/13/4
f 180/12/5 178/12/5 121/13/5 124/13/5
f 179/7/2 180/12/2 124/13/2 123/14/2
f 174/12/4 173/7/4 110/14/4 109/13/4
f 176/12/5 174/12/5 109/13/5 112/13/5
f 175/7/2 176/12/2 112/13/2 111/14/2
f 189/7/2 158/48/2 195/7/2 194/7/2
f 158/61/1 157/62/1 196/63/1 195/64/1
f 157/47/4 190/22/4 193/21/4 196/21/4
f 187/7/2 147/14/2 199/7/2 198/7/2
f 147/65/1 146/66/1 200/67/1 199/68/1
f 146/14/4 185/7/4 197/7/4 200/7/4
f 183/7/2 135/14/2 203/7/2 202/7/2
f 135/69/1 134/70/1 204/71/1 203/72/1
f 134/14/4 181/7/4 201/7/4 204/7/4
f 179/7/2 123/14/2 207/7/2 206/7/2
f 123/73/1 122/74/1 208/75/1 207/76/1
f 122/14/4 177/7/4 205/7/4 208/7/4
f 175/7/2 111/14/2 211/7/2 210/7/2
f 111/77/1 110/78/1 212/79/1 211/80/1
f 110/14/4 173/7/4 209/7/4 212/7/4
f 7/51/5 14/36/5 11/36/5 10/32/5
f 14/36/6 13/37/6 12/37/6 11/36/6
f 13/37/3 8/35/3 9/35/3 12/37/3
f 7/51/5 10/32/5 215/32/5 214/32/5
f 10/81/4 9/82/4 216/83/4 215/84/4
f 9/35/3 8/35/3 213/31/3 216/31/3
f 2/34/6 1/33/6 81/44/6 80/34/6
f 80/34/5 84/10/5 3/10/5 2/34/5
f 1/33/3 4/9/3 82/46/3 81/44/3
f 82/46/3 4/9/3 219/6/3 218/6/3
f 4/81/2 3/82/2 220/83/2 219/84/2
f 3/10/5 84/10/5 217/5/5 220/5/5
