# 3ds Max Wavefront OBJ Exporter v0.97b - (c)2007 guruware
# File Created: 07.10.2016 19:37:29

mtllib tree1.mtl

#
# object Tree1
#

v  -0.9652 0.2950 -0.0089
v  -0.8844 0.2725 0.2193
v  -0.8875 8.5570 0.2665
v  -0.9652 8.5570 -0.0089
v  -0.8819 0.4416 0.3677
v  -0.8819 8.5570 0.3677
v  -0.7742 0.7678 0.5789
v  -0.6079 0.4438 0.7453
v  -0.6079 8.5570 0.7453
v  -0.7742 8.5570 0.5789
v  -0.4952 0.3086 0.7853
v  -0.2742 0.2593 0.9422
v  -0.2742 8.5570 0.9422
v  -0.4560 8.5570 0.7898
v  0.0348 0.3788 1.0591
v  0.0348 8.5570 0.9911
v  0.3265 0.3312 0.8519
v  0.3438 8.5570 0.9422
v  0.4692 0.3846 0.7496
v  0.5189 8.5570 0.8102
v  0.6789 0.5457 0.7663
v  0.7139 8.5570 0.7088
v  0.9764 0.5046 0.3502
v  0.8745 0.4112 0.1667
v  0.9395 8.5570 0.2053
v  0.9339 8.5570 0.4020
v  1.0348 0.4080 -0.0089
v  1.0348 8.5570 -0.0089
v  -0.8984 -0.0000 0.2850
v  -1.0195 0.1218 -0.0089
v  -1.1634 0.1218 -0.0089
v  -1.0678 -0.0000 0.3110
v  -1.0711 0.2096 0.4952
v  -1.3132 -0.0000 0.7111
v  -0.8228 0.2112 0.8702
v  -1.1361 0.3935 0.7750
v  -1.5309 -0.0000 1.0213
v  -1.0614 -0.0000 1.0164
v  -0.2636 0.1017 0.9783
v  -0.5333 0.0848 0.8102
v  -0.5920 -0.0000 0.9618
v  -0.2355 -0.0000 1.0740
v  0.0348 0.1977 1.0591
v  0.0348 -0.0000 1.1071
v  0.3611 0.1027 0.9386
v  0.4086 -0.0000 1.0493
v  0.5203 0.1028 0.7968
v  0.6675 -0.0000 1.0396
v  1.4645 -0.0000 1.2683
v  1.0291 0.1060 0.9961
v  1.7316 -0.0000 0.9108
v  1.3622 0.0968 0.6765
v  1.7592 0.0796 1.2614
v  1.9912 -0.0000 1.4247
v  1.0551 0.0000 -0.0089
v  1.0257 -0.0000 0.2577
v  1.1790 -0.0000 0.2930
v  1.1089 0.0000 -0.0089
v  0.9509 0.0945 0.2049
v  1.0435 0.0920 -0.0089
v  1.0226 0.1920 0.4176
v  0.4860 0.1716 0.7440
v  0.7534 0.2181 0.8050
v  0.3582 0.1709 0.8651
v  0.0348 0.2828 1.0591
v  -0.2697 0.1845 0.9577
v  -0.4677 0.1570 0.7659
v  -0.9300 0.6052 0.6633
v  -0.7078 0.3838 0.8137
v  -0.8480 0.0974 0.2472
v  -0.9268 0.2816 0.3856
v  -0.9886 0.1792 -0.0089
v  1.1136 0.1182 0.5134
v  1.1664 0.2609 0.8424
v  0.8799 0.1319 0.8695
v  0.8844 0.8019 0.6095
v  0.8438 8.5570 0.5789
v  0.9870 0.4439 0.7104
v  4.2265 6.7293 -1.7507
v  3.2348 6.7293 -3.2348
v  1.4394 11.0469 -1.4394
v  1.8807 11.0469 -0.7790
v  1.7507 6.7293 -4.2265
v  0.7790 11.0469 -1.8807
v  0.0000 6.7293 -4.5747
v  0.0000 11.0469 -2.0357
v  -1.7507 6.7293 -4.2265
v  -0.7790 11.0469 -1.8807
v  -3.2348 6.7293 -3.2348
v  -1.4394 11.0469 -1.4394
v  -4.2265 6.7293 -1.7507
v  -1.8807 11.0469 -0.7790
v  -4.5747 6.7293 -0.0000
v  -2.0357 11.0469 -0.0000
v  -4.2265 6.7293 1.7507
v  -1.8807 11.0469 0.7790
v  -3.2348 6.7293 3.2348
v  -1.4394 11.0469 1.4394
v  -1.7507 6.7293 4.2265
v  -0.7790 11.0469 1.8807
v  -0.0000 6.7293 4.5747
v  -0.0000 11.0469 2.0357
v  1.7507 6.7293 4.2265
v  0.7790 11.0469 1.8807
v  3.2348 6.7293 3.2348
v  1.4394 11.0469 1.4394
v  4.2265 6.7293 1.7507
v  1.8807 11.0469 0.7790
v  4.5747 6.7293 -0.0000
v  2.0357 11.0469 -0.0000
v  3.2601 9.2339 -1.3504
v  2.4952 9.2339 -2.4952
v  1.2476 12.6013 -1.2476
v  1.6301 12.6013 -0.6752
v  1.3504 9.2339 -3.2601
v  0.6752 12.6013 -1.6301
v  0.0000 9.2339 -3.5287
v  0.0000 12.6013 -1.7644
v  -1.3504 9.2339 -3.2601
v  -0.6752 12.6013 -1.6301
v  -2.4952 9.2339 -2.4952
v  -1.2476 12.6013 -1.2476
v  -3.2601 9.2339 -1.3504
v  -1.6301 12.6013 -0.6752
v  -3.5287 9.2339 -0.0000
v  -1.7644 12.6013 -0.0000
v  -3.2601 9.2339 1.3504
v  -1.6301 12.6013 0.6752
v  -2.4952 9.2339 2.4952
v  -1.2476 12.6013 1.2476
v  -1.3504 9.2339 3.2601
v  -0.6752 12.6013 1.6301
v  -0.0000 9.2339 3.5287
v  -0.0000 12.6013 1.7644
v  1.3504 9.2339 3.2601
v  0.6752 12.6013 1.6301
v  2.4952 9.2339 2.4952
v  1.2476 12.6013 1.2476
v  3.2601 9.2339 1.3504
v  1.6301 12.6013 0.6752
v  3.5287 9.2339 -0.0000
v  1.7644 12.6013 -0.0000
v  2.2230 11.6972 -0.9208
v  1.7014 11.6972 -1.7014
v  0.8507 14.6633 -0.8507
v  1.1115 14.6633 -0.4604
v  0.9208 11.6972 -2.2230
v  0.4604 14.6633 -1.1115
v  0.0000 11.6972 -2.4061
v  0.0000 14.6633 -1.2031
v  -0.9208 11.6972 -2.2230
v  -0.4604 14.6633 -1.1115
v  -1.7014 11.6972 -1.7014
v  -0.8507 14.6633 -0.8507
v  -2.2230 11.6972 -0.9208
v  -1.1115 14.6633 -0.4604
v  -2.4061 11.6972 -0.0000
v  -1.2031 14.6633 -0.0000
v  -2.2230 11.6972 0.9208
v  -1.1115 14.6633 0.4604
v  -1.7014 11.6972 1.7014
v  -0.8507 14.6633 0.8507
v  -0.9208 11.6972 2.2230
v  -0.4604 14.6633 1.1115
v  -0.0000 11.6972 2.4061
v  -0.0000 14.6633 1.2031
v  0.9208 11.6972 2.2230
v  0.4604 14.6633 1.1115
v  1.7014 11.6972 1.7014
v  0.8507 14.6633 0.8507
v  2.2230 11.6972 0.9208
v  1.1115 14.6633 0.4604
v  2.4061 11.6972 -0.0000
v  1.2031 14.6633 -0.0000
v  1.6163 13.6899 -0.6695
v  1.2371 13.6899 -1.2371
v  0.2400 16.6560 -0.2400
v  0.3136 16.6560 -0.1299
v  0.6695 13.6899 -1.6163
v  0.1299 16.6560 -0.3136
v  0.0000 13.6899 -1.7495
v  0.0000 16.6560 -0.3394
v  -0.6695 13.6899 -1.6163
v  -0.1299 16.6560 -0.3136
v  -1.2371 13.6899 -1.2371
v  -0.2400 16.6560 -0.2400
v  -1.6163 13.6899 -0.6695
v  -0.3136 16.6560 -0.1299
v  -1.7495 13.6899 -0.0000
v  -0.3394 16.6560 -0.0000
v  -1.6163 13.6899 0.6695
v  -0.3136 16.6560 0.1299
v  -1.2371 13.6899 1.2371
v  -0.2400 16.6560 0.2400
v  -0.6695 13.6899 1.6163
v  -0.1299 16.6560 0.3136
v  -0.0000 13.6899 1.7495
v  -0.0000 16.6560 0.3394
v  0.6695 13.6899 1.6163
v  0.1299 16.6560 0.3136
v  1.2371 13.6899 1.2371
v  0.2400 16.6560 0.2400
v  1.6163 13.6899 0.6695
v  0.3136 16.6560 0.1299
v  1.7495 13.6899 -0.0000
v  0.3394 16.6560 -0.0000
v  1.2870 15.1575 -0.5331
v  0.9851 15.1575 -0.9851
v  0.0594 18.1236 -0.0594
v  0.0776 18.1236 -0.0321
v  0.5331 15.1575 -1.2870
v  0.0321 18.1236 -0.0776
v  0.0000 15.1575 -1.3931
v  0.0000 18.1236 -0.0840
v  -0.5331 15.1575 -1.2870
v  -0.0321 18.1236 -0.0776
v  -0.9851 15.1575 -0.9851
v  -0.0594 18.1236 -0.0594
v  -1.2870 15.1575 -0.5331
v  -0.0776 18.1236 -0.0321
v  -1.3931 15.1575 -0.0000
v  -0.0840 18.1236 -0.0000
v  -1.2870 15.1575 0.5331
v  -0.0776 18.1236 0.0321
v  -0.9851 15.1575 0.9851
v  -0.0594 18.1236 0.0594
v  -0.5331 15.1575 1.2870
v  -0.0321 18.1236 0.0776
v  -0.0000 15.1575 1.3931
v  -0.0000 18.1236 0.0840
v  0.5331 15.1575 1.2870
v  0.0321 18.1236 0.0776
v  0.9851 15.1575 0.9851
v  0.0594 18.1236 0.0594
v  1.2870 15.1575 0.5331
v  0.0776 18.1236 0.0321
v  1.3931 15.1575 -0.0000
v  0.0840 18.1236 -0.0000
# 238 vertices

vn -0.9539 -0.0010 0.3001
vn -0.9676 -0.0009 0.2525
vn -0.9763 -0.0008 0.2164
vn -0.9849 -0.0002 0.1731
vn -0.9498 -0.0001 0.3129
vn -0.8094 -0.0000 0.5873
vn -0.4352 0.0003 0.9003
vn -0.5699 0.0002 0.8217
vn -0.5578 0.0011 0.8300
vn -0.4340 0.0027 0.9009
vn -0.4227 0.0028 0.9063
vn -0.5092 0.0010 0.8607
vn 0.0519 0.0014 0.9987
vn 0.0726 0.0012 0.9974
vn 0.4659 -0.0046 0.8848
vn 0.4712 -0.0048 0.8820
vn 0.4739 -0.0071 0.8806
vn 0.4061 -0.0056 0.9138
vn 0.3316 0.0003 0.9434
vn 0.4457 0.0017 0.8952
vn 0.9984 0.0014 -0.0572
vn 0.9626 -0.0031 0.2708
vn 0.9791 -0.0027 0.2033
vn 0.9949 0.0025 0.1005
vn 0.8363 -0.0046 0.5483
vn -0.6115 0.7504 -0.2508
vn -0.2197 0.8672 0.4468
vn 0.0298 0.9326 0.3596
vn -0.4773 0.8182 -0.3206
vn -0.7064 0.4467 -0.5491
vn -0.7445 0.4335 -0.5078
vn 0.0859 0.4900 0.8675
vn -0.5641 0.7522 0.3406
vn -0.4998 0.7589 0.4174
vn 0.0505 0.5343 0.8438
vn -0.3298 0.5610 0.7593
vn 0.0533 0.5338 0.8439
vn 0.0608 0.6683 0.7414
vn -0.2632 0.5727 0.7764
vn 0.0854 0.3926 0.9157
vn 0.0478 0.4629 0.8851
vn 0.3095 0.6419 0.7015
vn 0.2238 0.7249 0.6514
vn -0.0248 0.7759 0.6304
vn -0.1271 0.8423 0.5238
vn -0.1895 0.7725 0.6061
vn -0.1960 0.8033 0.5624
vn 0.4071 0.8793 -0.2473
vn 0.4040 0.8482 -0.3427
vn 0.1766 0.9730 0.1485
vn 0.2201 0.9710 0.0937
vn 0.4563 0.8824 0.1147
vn 0.5496 0.7907 -0.2695
vn 0.3164 0.8848 -0.3420
vn 0.0000 1.0000 0.0000
vn 0.8309 0.1442 0.5374
vn 0.9905 0.1375 0.0030
vn 0.9701 0.2414 0.0229
vn 0.8564 0.2341 0.4601
vn 0.9742 0.1890 -0.1232
vn 0.9047 0.3002 -0.3024
vn 0.1457 0.2018 0.9685
vn 0.0101 0.0493 0.9987
vn 0.0886 0.2090 0.9739
vn -0.0611 0.3000 0.9520
vn 0.5875 0.1057 0.8023
vn 0.5714 0.2836 0.7701
vn 0.2767 0.1105 0.9546
vn 0.2040 0.1715 0.9638
vn -0.5186 -0.0215 0.8547
vn -0.4911 0.1476 0.8585
vn -0.1449 0.0658 0.9873
vn -0.1806 0.2082 0.9613
vn 0.0845 0.4416 0.8932
vn -0.5600 0.7130 0.4219
vn -0.6103 0.7169 0.3369
vn 0.0563 0.3986 0.9154
vn -0.8659 0.3568 -0.3507
vn -0.9944 -0.0050 0.1054
vn -0.9599 0.2549 -0.1165
vn -0.8048 0.3164 -0.5021
vn -0.9096 -0.0009 0.4155
vn -0.8582 0.2011 0.4722
vn 0.6146 0.6862 -0.3890
vn 0.2489 0.9553 0.1597
vn -0.1752 0.6705 0.7209
vn 0.8146 0.0045 0.5800
vn 0.8134 0.0045 0.5817
vn 0.7998 0.2900 0.5255
vn 0.7365 0.4393 0.5144
vn 0.7964 0.5069 -0.3299
vn 0.6095 0.5069 -0.6095
vn 0.3299 0.5069 -0.7964
vn 0.0000 0.5069 -0.8620
vn -0.3299 0.5069 -0.7964
vn -0.6095 0.5069 -0.6095
vn -0.7964 0.5069 -0.3299
vn -0.8620 0.5069 -0.0000
vn -0.7964 0.5069 0.3299
vn -0.6095 0.5069 0.6095
vn -0.3299 0.5069 0.7964
vn -0.0000 0.5069 0.8620
vn 0.3299 0.5069 0.7964
vn 0.6095 0.5069 0.6095
vn 0.7964 0.5069 0.3299
vn 0.8620 0.5069 0.0000
vn 0.8183 0.4641 -0.3390
vn 0.6263 0.4641 -0.6263
vn 0.3390 0.4641 -0.8183
vn 0.0000 0.4641 -0.8858
vn -0.3390 0.4641 -0.8183
vn -0.6263 0.4641 -0.6263
vn -0.8183 0.4641 -0.3390
vn -0.8858 0.4641 -0.0000
vn -0.8183 0.4641 0.3390
vn -0.6263 0.4641 0.6263
vn -0.3390 0.4641 0.8183
vn -0.0000 0.4641 0.8858
vn 0.3390 0.4641 0.8183
vn 0.6263 0.4641 0.6263
vn 0.8183 0.4641 0.3390
vn 0.8858 0.4641 0.0000
vn 0.8561 0.3759 -0.3546
vn 0.6553 0.3759 -0.6553
vn 0.3546 0.3759 -0.8561
vn 0.0000 0.3759 -0.9267
vn -0.3546 0.3759 -0.8561
vn -0.6553 0.3759 -0.6553
vn -0.8561 0.3759 -0.3546
vn -0.9267 0.3759 0.0000
vn -0.8561 0.3759 0.3546
vn -0.6553 0.3759 0.6553
vn -0.3546 0.3759 0.8561
vn -0.0000 0.3759 0.9267
vn 0.3546 0.3759 0.8561
vn 0.6553 0.3759 0.6553
vn 0.8561 0.3759 0.3546
vn 0.9267 0.3759 0.0000
vn 0.8344 0.4293 -0.3456
vn 0.6386 0.4293 -0.6386
vn 0.3456 0.4293 -0.8344
vn 0.0000 0.4293 -0.9031
vn -0.3456 0.4293 -0.8344
vn -0.6386 0.4293 -0.6386
vn -0.8344 0.4293 -0.3456
vn -0.9031 0.4293 -0.0000
vn -0.8344 0.4293 0.3456
vn -0.6386 0.4293 0.6386
vn -0.3456 0.4293 0.8344
vn -0.0000 0.4293 0.9031
vn 0.3456 0.4293 0.8344
vn 0.6386 0.4293 0.6386
vn 0.8344 0.4293 0.3456
vn 0.9031 0.4293 -0.0000
vn 0.9031 0.4293 0.0000
vn 0.8452 0.4038 -0.3501
vn 0.6469 0.4038 -0.6469
vn 0.3501 0.4038 -0.8452
vn 0.0000 0.4038 -0.9149
vn -0.3501 0.4038 -0.8452
vn -0.6469 0.4038 -0.6469
vn -0.8452 0.4038 -0.3501
vn -0.9149 0.4038 0.0000
vn -0.8452 0.4038 0.3501
vn -0.6469 0.4038 0.6469
vn -0.3501 0.4038 0.8452
vn -0.0000 0.4038 0.9149
vn 0.3501 0.4038 0.8452
vn 0.6469 0.4038 0.6469
vn 0.8452 0.4038 0.3501
vn 0.9149 0.4038 0.0000
# 171 vertex normals

vt -0.9903 -0.3041 0.0000
vt -0.8448 -0.3398 0.0000
vt -0.8448 -0.0168 0.0000
vt -0.9903 -0.0168 0.0000
vt -0.8095 -0.3118 0.0000
vt -0.8095 -0.0168 0.0000
vt -0.6992 -0.3405 0.0000
vt -0.5898 -0.3956 0.0000
vt -0.5898 -0.0168 0.0000
vt -0.6992 -0.0168 0.0000
vt -0.5537 -0.4375 0.0000
vt -0.4081 -0.3865 0.0000
vt -0.4081 -0.0168 0.0000
vt -0.5537 -0.0168 0.0000
vt -0.2626 -0.3086 0.0000
vt -0.2626 -0.0168 0.0000
vt -0.1171 -0.2823 0.0000
vt -0.1171 -0.0168 0.0000
vt 0.0285 -0.2861 0.0000
vt 0.0285 -0.0168 0.0000
vt 0.0885 -0.2771 0.0000
vt 0.0885 -0.0168 0.0000
vt 0.2663 -0.3378 0.0000
vt 0.3195 -0.3505 0.0000
vt 0.3195 -0.0168 0.0000
vt 0.2663 -0.0168 0.0000
vt 0.4651 -0.3295 0.0000
vt 0.4651 -0.0168 0.0000
vt 0.9707 -0.1605 0.0000
vt 0.6881 -0.1604 0.0000
vt 0.6880 -0.1999 0.0000
vt 0.9706 -0.1999 0.0000
vt 0.7566 -0.1455 0.0000
vt 0.7565 -0.3040 0.0000
vt 0.9007 -0.1605 0.0000
vt 0.9005 -0.1999 0.0000
vt 0.9707 -0.1716 0.0000
vt 0.8189 -0.1999 0.0000
vt 0.8281 -0.1824 0.0000
vt 0.6881 -0.1716 0.0000
vt 0.8250 -0.1999 0.0000
vt 0.8556 -0.1783 0.0000
vt 0.6880 -0.1935 0.0000
vt 0.6881 -0.1678 0.0000
vt 0.9708 -0.1711 0.0000
vt 0.6882 -0.1920 0.0000
vt 0.6882 -0.1551 0.0000
vt 0.9708 -0.1520 0.0000
vt 0.9708 -0.1920 0.0000
vt 0.8675 -0.1793 0.0000
vt 0.8675 -0.1540 0.0000
vt 0.9707 -0.1552 0.0000
vt 0.8049 -0.1186 0.0000
vt 0.6882 -0.1276 0.0000
vt 0.6881 -0.1567 0.0000
vt 0.8048 -0.1548 0.0000
vt 0.9708 -0.1276 0.0000
vt 0.6882 -0.1238 0.0000
vt 0.6882 -0.1520 0.0000
vt 0.9707 -0.1568 0.0000
vt 0.9708 -0.1239 0.0000
vt 0.6882 -0.1500 0.0000
vt 0.9708 -0.1501 0.0000
vt 0.6882 -0.2280 0.0000
vt 0.9708 -0.2280 0.0000
vt 0.6882 -0.2790 0.0000
vt 0.9007 -0.2371 0.0000
vt 0.6882 -0.1820 0.0000
vt 0.9007 -0.1520 0.0000
vt 0.7567 -0.1533 0.0000
vt 0.6882 -0.1812 0.0000
vt 0.7566 -0.1714 0.0000
vt 0.9708 -0.1813 0.0000
vt 0.6882 -0.1455 0.0000
vt 0.6882 -0.1842 0.0000
vt 0.8674 -0.1651 0.0000
vt 0.8048 -0.1670 0.0000
vt 0.9706 -0.1935 0.0000
vt 0.9707 -0.1679 0.0000
vt 0.1740 -0.2704 0.0000
vt 0.1740 -0.0168 0.0000
vt 0.6882 -0.1118 0.0000
vt 0.9708 -0.1119 0.0000
vt 0.9708 -0.2790 0.0000
vt 0.9708 -0.1820 0.0000
vt 0.5623 0.4985 0.0000
vt 0.4897 0.4985 0.0000
vt 0.4909 0.0052 0.0000
vt 0.5594 0.0053 0.0000
vt 0.4197 0.4985 0.0000
vt 0.4212 0.0051 0.0000
vt 0.3496 0.4985 0.0000
vt 0.3515 0.0051 0.0000
vt 0.2795 0.4985 0.0000
vt 0.2818 0.0050 0.0000
vt 0.2094 0.4985 0.0000
vt 0.2121 0.0049 0.0000
vt 0.1394 0.4985 0.0000
vt 0.1424 0.0049 0.0000
vt 0.0693 0.4985 0.0000
vt 0.0727 0.0048 0.0000
vt -0.0008 0.4985 0.0000
vt 0.0030 0.0047 0.0000
vt -0.0708 0.4985 0.0000
vt -0.0667 0.0047 0.0000
vt -0.1409 0.4985 0.0000
vt -0.1364 0.0046 0.0000
vt -0.2110 0.4985 0.0000
vt -0.2061 0.0045 0.0000
vt -0.2811 0.4985 0.0000
vt -0.2758 0.0045 0.0000
vt -0.3511 0.4986 0.0000
vt -0.3455 0.0044 0.0000
vt -0.4212 0.4986 0.0000
vt -0.4152 0.0043 0.0000
vt -0.4913 0.4986 0.0000
vt -0.4849 0.0043 0.0000
vt -0.5588 0.4986 0.0000
vt -0.5559 0.0042 0.0000
# 119 texture coords

g Tree1
usemtl blinn2
s off
f 1/1/1 2/2/2 3/3/3 4/4/1 
f 2/2/2 5/5/4 6/6/5 3/3/3 
f 7/7/6 8/8/7 9/9/8 10/10/6 
f 11/11/9 12/12/10 13/13/11 14/14/12 
f 12/12/10 15/15/13 16/16/14 13/13/11 
f 15/15/13 17/17/15 18/18/16 16/16/14 
f 17/17/15 19/19/17 20/20/18 18/18/16 
f 19/19/17 21/21/19 22/22/20 20/20/18 
f 23/23/21 24/24/22 25/25/23 26/26/24 
f 24/24/22 27/27/25 28/28/25 25/25/23 
f 29/29/26 30/30/27 31/31/28 32/32/29 
f 33/33/30 29/30/26 32/31/29 34/34/31 
f 35/35/32 36/30/33 37/31/34 38/36/35 
f 39/29/36 40/30/37 41/31/38 42/32/39 
f 43/29/40 39/30/36 42/31/39 44/32/41 
f 45/29/42 43/30/40 44/31/41 46/32/43 
f 47/37/44 45/30/42 46/31/43 48/32/45 
f 49/38/46 50/39/47 47/40/44 48/31/45 
f 51/41/48 52/42/49 53/43/50 54/31/51 
f 55/29/52 56/44/53 57/31/54 58/32/55 
f 27/45/56 24/46/57 59/47/58 60/48/59 
f 24/49/57 23/50/60 61/51/61 59/52/58 
f 21/53/62 19/54/63 62/55/64 63/56/65 
f 19/57/63 17/58/66 64/59/67 62/60/64 
f 17/61/66 15/62/68 65/59/69 64/48/67 
f 15/63/68 12/64/70 66/59/71 65/48/69 
f 12/65/70 11/66/72 67/59/73 66/48/71 
f 8/67/74 7/68/75 68/59/76 69/69/77 
f 5/70/78 2/71/79 70/59/80 71/72/81 
f 2/73/79 1/74/82 72/75/83 70/48/80 
f 52/42/49 73/76/84 74/30/85 53/43/50 
f 74/29/85 75/77/86 50/39/47 53/78/50 
f 70/48/80 72/75/83 30/30/27 29/29/26 
f 71/72/81 70/59/80 29/30/26 33/33/30 
f 69/69/77 68/59/76 36/30/33 35/35/32 
f 66/48/71 67/59/73 40/30/37 39/29/36 
f 65/48/69 66/59/71 39/30/36 43/29/40 
f 64/48/67 65/59/69 43/30/40 45/29/42 
f 62/60/64 64/59/67 45/30/42 47/37/44 
f 63/56/65 62/55/64 47/40/44 75/77/86 
f 59/52/58 61/51/61 73/76/84 56/79/53 
f 60/48/59 59/47/58 56/44/53 55/29/52 
f 76/80/87 23/23/21 26/26/24 77/81/88 
f 61/51/61 23/50/60 76/82/89 78/59/90 
f 73/76/84 61/51/61 78/59/90 74/30/85 
f 78/48/90 63/56/65 75/77/86 74/29/85 
f 76/83/89 21/53/62 63/56/65 78/48/90 
f 22/22/20 21/21/19 76/80/87 77/81/88 
f 50/39/47 75/77/86 47/40/44 
f 53/78/50 50/39/47 49/38/46 54/32/51 
f 56/79/53 52/42/49 51/41/48 57/32/54 
f 56/79/53 73/76/84 52/42/49 
f 40/29/37 35/35/32 38/36/35 41/32/38 
f 67/48/73 69/69/77 35/35/32 40/29/37 
f 11/84/72 8/67/74 69/69/77 67/48/73 
f 9/9/8 8/8/7 11/11/9 14/14/12 
f 36/29/33 33/33/30 34/34/31 37/32/34 
f 68/48/76 71/72/81 33/33/30 36/29/33 
f 7/85/75 5/70/78 71/72/81 68/48/76 
f 6/6/5 5/5/4 7/7/6 10/10/6 
f 79/86/91 80/87/92 81/88/92 82/89/91 
f 80/87/92 83/90/93 84/91/93 81/88/92 
f 83/90/93 85/92/94 86/93/94 84/91/93 
f 85/92/94 87/94/95 88/95/95 86/93/94 
f 87/94/95 89/96/96 90/97/96 88/95/95 
f 89/96/96 91/98/97 92/99/97 90/97/96 
f 91/98/97 93/100/98 94/101/98 92/99/97 
f 93/100/98 95/102/99 96/103/99 94/101/98 
f 95/102/99 97/104/100 98/105/100 96/103/99 
f 97/104/100 99/106/101 100/107/101 98/105/100 
f 99/106/101 101/108/102 102/109/102 100/107/101 
f 101/108/102 103/110/103 104/111/103 102/109/102 
f 103/110/103 105/112/104 106/113/104 104/111/103 
f 105/112/104 107/114/105 108/115/105 106/113/104 
f 107/114/105 109/116/106 110/117/106 108/115/105 
f 109/116/106 79/118/91 82/119/91 110/117/106 
f 111/86/107 112/87/108 113/88/108 114/89/107 
f 112/87/108 115/90/109 116/91/109 113/88/108 
f 115/90/109 117/92/110 118/93/110 116/91/109 
f 117/92/110 119/94/111 120/95/111 118/93/110 
f 119/94/111 121/96/112 122/97/112 120/95/111 
f 121/96/112 123/98/113 124/99/113 122/97/112 
f 123/98/113 125/100/114 126/101/114 124/99/113 
f 125/100/114 127/102/115 128/103/115 126/101/114 
f 127/102/115 129/104/116 130/105/116 128/103/115 
f 129/104/116 131/106/117 132/107/117 130/105/116 
f 131/106/117 133/108/118 134/109/118 132/107/117 
f 133/108/118 135/110/119 136/111/119 134/109/118 
f 135/110/119 137/112/120 138/113/120 136/111/119 
f 137/112/120 139/114/121 140/115/121 138/113/120 
f 139/114/121 141/116/122 142/117/122 140/115/121 
f 141/116/122 111/118/107 114/119/107 142/117/122 
f 143/86/123 144/87/124 145/88/124 146/89/123 
f 144/87/124 147/90/125 148/91/125 145/88/124 
f 147/90/125 149/92/126 150/93/126 148/91/125 
f 149/92/126 151/94/127 152/95/127 150/93/126 
f 151/94/127 153/96/128 154/97/128 152/95/127 
f 153/96/128 155/98/129 156/99/129 154/97/128 
f 155/98/129 157/100/130 158/101/130 156/99/129 
f 157/100/130 159/102/131 160/103/131 158/101/130 
f 159/102/131 161/104/132 162/105/132 160/103/131 
f 161/104/132 163/106/133 164/107/133 162/105/132 
f 163/106/133 165/108/134 166/109/134 164/107/133 
f 165/108/134 167/110/135 168/111/135 166/109/134 
f 167/110/135 169/112/136 170/113/136 168/111/135 
f 169/112/136 171/114/137 172/115/137 170/113/136 
f 171/114/137 173/116/138 174/117/138 172/115/137 
f 173/116/138 143/118/123 146/119/123 174/117/138 
f 175/86/139 176/87/140 177/88/140 178/89/139 
f 176/87/140 179/90/141 180/91/141 177/88/140 
f 179/90/141 181/92/142 182/93/142 180/91/141 
f 181/92/142 183/94/143 184/95/143 182/93/142 
f 183/94/143 185/96/144 186/97/144 184/95/143 
f 185/96/144 187/98/145 188/99/145 186/97/144 
f 187/98/145 189/100/146 190/101/146 188/99/145 
f 189/100/146 191/102/147 192/103/147 190/101/146 
f 191/102/147 193/104/148 194/105/148 192/103/147 
f 193/104/148 195/106/149 196/107/149 194/105/148 
f 195/106/149 197/108/150 198/109/150 196/107/149 
f 197/108/150 199/110/151 200/111/151 198/109/150 
f 199/110/151 201/112/152 202/113/152 200/111/151 
f 201/112/152 203/114/153 204/115/153 202/113/152 
f 203/114/153 205/116/154 206/117/155 204/115/153 
f 205/116/154 175/118/139 178/119/139 206/117/155 
f 207/86/156 208/87/157 209/88/157 210/89/156 
f 208/87/157 211/90/158 212/91/158 209/88/157 
f 211/90/158 213/92/159 214/93/159 212/91/158 
f 213/92/159 215/94/160 216/95/160 214/93/159 
f 215/94/160 217/96/161 218/97/161 216/95/160 
f 217/96/161 219/98/162 220/99/162 218/97/161 
f 219/98/162 221/100/163 222/101/163 220/99/162 
f 221/100/163 223/102/164 224/103/164 222/101/163 
f 223/102/164 225/104/165 226/105/165 224/103/164 
f 225/104/165 227/106/166 228/107/166 226/105/165 
f 227/106/166 229/108/167 230/109/167 228/107/166 
f 229/108/167 231/110/168 232/111/168 230/109/167 
f 231/110/168 233/112/169 234/113/169 232/111/168 
f 233/112/169 235/114/170 236/115/170 234/113/169 
f 235/114/170 237/116/171 238/117/171 236/115/170 
f 237/116/171 207/118/156 210/119/156 238/117/171 
# 138 polygons - 2 triangles

